<?xml version="1.0" encoding="utf-8"?>
<!-- Generator: Adobe Illustrator 19.2.1, SVG Export Plug-In . SVG Version: 6.00 Build 0)  -->
<svg version="1.1" id="layer" xmlns="http://www.w3.org/2000/svg" xmlns:xlink="http://www.w3.org/1999/xlink" x="0px" y="0px"
	 viewBox="0 0 652 652" style="enable-background:new 0 0 652 652;" xml:space="preserve">
<style type="text/css">
	.st0{fill:#0047BA;}
</style>
<path class="st0" d="M403.2,274.4c11.2-6.7,20.5-9.3,32.8-8.2c-31-23.1-42.9,14.2-75.4,4.5c-12.3-3.7-19.4-14.2-34.3-11.9
	c-19.4,2.6-33.2,24.3-63.8,6.7c17.2,24.3,39.2,17.5,54.5,8.6c7.5-4.5,23.1-11.9,31.7-7.1c2.6,1.5,4.1,3.4,6,5.2
	c1.9,1.9,3.7,3.7,5.6,4.9l0,0c1.5,1.1,2.6,1.9,4.1,2.6c-15.3,6-29.5,19.4-55.2,4.5c17.2,24.3,39.2,17.5,54.5,8.6
	c7.5-4.5,23.1-11.9,31.7-7.1c2.6,1.5,4.1,3.4,6,5.2c1.9,1.9,3.7,3.7,5.6,4.9l0,0c13.8,9.7,30.2,5.2,43.7-2.6
	c11.2-6.7,20.5-9.3,32.8-8.2c-31-23.1-42.9,14.2-75.4,4.5c-6.3-1.9-11.6-5.6-16.8-8.6C394.7,278.9,399.1,276.7,403.2,274.4"/>
<path d="M68.9,364.7H76c-0.7,6.3-3.7,11.6-8.6,15.7c-4.9,4.1-10.8,6-17.9,6c-8.6,0-15.7-2.6-20.9-8.2c-5.2-5.2-8.2-12.3-8.2-20.9
	s2.6-15.7,7.8-20.9s12.3-7.8,20.9-7.8c6.7,0,12.7,1.9,17.5,5.6c4.9,3.7,7.8,8.6,8.6,14.2h-7.5c-1.1-4.1-3.7-7.5-6.7-9.7
	c-3.4-2.2-7.5-3.4-11.9-3.4c-6.3,0-11.6,1.9-15.7,6c-3.7,4.1-5.6,9.3-5.6,16c0,6.7,1.9,11.9,6,16c3.7,4.1,9.3,6,15.7,6
	c4.9,0,9-1.5,12.7-4.1C65.5,373,67.8,369.2,68.9,364.7 M85,384.5v-73.9h6.7v29.5c2.6-3.7,6-6.3,9.7-8.2c3.7-1.9,8.2-3,13.1-3
	c7.1,0,12.3,1.5,15.7,4.9c3.4,3.4,5.2,8.2,5.2,15.3v35.1h-7.1v-30.2c0-6.7-1.1-11.6-3.4-14.2c-2.2-2.6-6-4.1-11.6-4.1
	c-6.3,0-11.2,1.9-15.3,5.2s-6,7.8-6,13.1v31H85V384.5z M202.9,377.8v6c-1.1,0.4-2.2,0.7-3,0.7c-1.1,0-1.9,0.4-3,0.4
	c-2.2,0-4.1-0.7-5.2-1.9c-1.1-1.1-1.9-3.4-1.9-6.7c-3,3.4-6.3,6-10.1,7.5c-3.7,1.5-8.2,2.2-13.4,2.2c-6.7,0-11.6-1.5-15.3-4.1
	c-3.7-3-5.2-6.7-5.2-11.9c0-2.2,0.4-4.5,1.5-6.3c1.1-1.9,2.2-3.7,4.1-4.9c1.5-1.1,3.4-1.9,6-2.6c2.6-0.7,7.1-1.5,13.1-2.2
	c1.5,0,3.4-0.4,5.6-0.7c9-1.1,13.1-3.7,13.1-7.8c0-3-1.1-5.2-3.7-6.7c-2.6-1.5-6.3-2.2-11.2-2.2c-6.3,0-10.8,1.1-14.2,3
	c-3.4,2.2-4.9,5.2-5.2,9.3h-7.1c0.4-6.3,2.6-11.2,7.1-14.2c4.1-3,10.4-4.9,18.3-4.9c5.2,0,9.3,0.4,12.3,1.5c3,1.1,5.6,2.6,7.5,4.9
	c1.1,1.5,1.9,3,2.2,4.9c0.4,1.9,0.7,4.5,0.7,8.2v23.5c0,2.2,0.4,3.7,0.7,4.5c0.4,0.7,1.1,0.7,2.2,0.7c0.4,0,1.1,0,1.5,0
	C201.7,377.8,202.1,377.8,202.9,377.8z M189.4,355c-1.1,0.7-3.4,1.5-6,1.9c-2.6,0.7-6.7,1.5-12.7,2.2c-7.8,1.1-12.7,2.6-14.9,4.1
	c-2.2,1.5-3,3.4-3,6.3s1.1,5.2,3.7,7.1c2.6,1.9,6,2.6,10.1,2.6c6.7,0,11.9-1.5,16.4-4.9c4.1-3,6.3-7.1,6.3-12.3
	C189.4,362.1,189.4,355,189.4,355z M219.7,384.5h-7.1v-54.1h7.1v9c1.5-3.4,3.7-6,6.7-8.2c3-1.9,6-3,9.7-3c1.1,0,2.2,0,3.4,0.4
	c1.1,0.4,2.2,0.7,3.7,1.1v6.7c-1.1-0.4-2.2-0.7-3.4-0.7c-1.1,0-1.9-0.4-3-0.4c-4.1,0-7.8,1.1-10.4,3.4c-3,2.2-4.9,5.6-6.3,10.4v35.4
	H219.7z M249.9,384.5v-73.9h7.1v73.9C257,384.5,249.9,384.5,249.9,384.5z M276,353.2h41.8c-0.4-5.2-2.6-9.7-6.3-13.1
	c-3.7-3.4-8.6-4.9-14.6-4.9c-6,0-10.8,1.5-14.6,4.9C278.6,343.5,276.4,347.6,276,353.2z M323.8,367.4c-1.5,6-4.5,10.4-9.3,14.2
	c-4.9,3.4-10.4,5.2-17.5,5.2c-8.6,0-15.7-2.6-20.9-7.8s-7.8-12.3-7.8-20.9c0-8.6,2.6-15.7,7.8-20.9s12.3-7.8,20.9-7.8
	c8.6,0,15.7,2.6,20.9,7.8c5.2,5.2,7.8,12.3,7.8,20.9v1.5h-50c0.4,6.7,2.6,11.6,6,15.3c3.7,3.7,8.6,5.2,14.9,5.2
	c4.5,0,8.6-1.1,11.9-3.4c3.4-2.2,5.6-5.2,7.1-9h8.2V367.4z M331.2,367.4h7.1c0.4,4.1,2.2,7.1,5.6,9c3,1.9,7.5,3,13.4,3
	s10.8-0.7,13.8-2.6c3.4-1.9,4.9-4.1,4.9-7.5c0-2.2-0.7-4.1-2.2-5.2c-1.5-1.1-4.1-2.2-7.8-2.6l-15.7-2.2c-6.3-0.7-10.4-2.6-13.4-4.9
	c-2.6-2.2-4.1-5.6-4.1-10.1c0-4.9,2.2-8.6,6.3-11.6c4.1-3,10.1-4.1,17.5-4.1c7.5,0,13.4,1.5,17.9,4.5c4.5,3,6.3,7.5,6.7,13.1h-7.1
	c-0.4-3.7-2.2-6.3-5.2-8.2c-3-1.9-7.5-2.6-13.1-2.6c-4.9,0-9,0.7-11.6,2.2c-2.6,1.5-4.1,3.7-4.1,6.7c0,2.2,0.7,4.1,2.6,5.2
	c1.9,1.1,4.9,2.2,9.7,3l13.8,2.2c6,0.7,10.4,2.6,13.1,4.9c2.6,2.2,4.1,5.6,4.1,9.7c0,5.6-2.2,10.1-6.7,13.1
	c-4.5,3-11.2,4.5-19.8,4.5c-7.8,0-13.8-1.5-17.9-4.9C334.2,378.2,332,373.3,331.2,367.4z M421.5,384.5h-7.1v-54.1h7.1v9
	c1.5-3.4,3.7-6,6.7-8.2c3-1.9,6-3,9.7-3c1.1,0,2.2,0,3.4,0.4s2.2,0.7,3.7,1.1v6.7c-1.1-0.4-2.2-0.7-3.4-0.7c-1.1,0-1.9-0.4-3-0.4
	c-4.1,0-7.8,1.1-10.4,3.4c-3,2.2-4.9,5.6-6.3,10.4v35.4H421.5z M451.7,319.2V311h7.1v8.2H451.7z M451.7,384.5v-54.1h7.1v54.1H451.7z
	 M489.1,384.5l-24.6-54.1h8.2l20.1,47l20.5-47h7.8l-24.6,54.1C496.5,384.5,489.1,384.5,489.1,384.5z M530.5,352.8h41.8
	c-0.4-5.2-2.6-9.7-6.3-13.1s-8.6-4.9-14.6-4.9c-6,0-10.8,1.5-14.6,4.9C533.1,343.1,530.8,347.2,530.5,352.8z M578.2,367
	c-1.5,6-4.5,10.4-9.3,14.2c-4.9,3.4-10.4,5.2-17.5,5.2c-8.6,0-15.7-2.6-20.9-7.8c-5.2-5.2-7.8-12.3-7.8-20.9s2.6-15.7,7.8-20.9
	c5.2-5.2,12.3-7.8,20.9-7.8c8.6,0,15.7,2.6,20.9,7.8c5.2,5.2,7.8,12.3,7.8,20.9v1.5h-50c0.4,6.7,2.6,11.6,6,15.3
	c3.7,3.7,8.6,5.2,14.9,5.2c4.5,0,8.6-1.1,11.9-3.4c3.4-2.2,5.6-5.2,7.1-9h8.2V367z M596.9,384.1h-7.1V330h7.1v9
	c1.5-3.4,3.7-6,6.7-8.2c3-1.9,6-3,9.7-3c1.1,0,2.2,0,3.4,0.4c1.1,0.4,2.2,0.7,3.7,1.1v6.7c-1.1-0.4-2.2-0.7-3.4-0.7s-1.9-0.4-3-0.4
	c-4.1,0-7.8,1.1-10.4,3.4c-3,2.2-4.9,5.6-6.3,10.4v35.4H596.9z"/>
</svg>
